# xmcd CD database file
#
# Track frame offsets:
#	150
#	23300
#	58005
#	104427
#	161587
#	183435
#	240125
#
# Disc length: 3809 seconds
#
# Revision: 1
# Processed by: cddbd v1.5.1PL2 Copyright (c) Steve Scherf et al.
# Submitted via: CDex 1.51
#
DISCID=470edf07
DTITLE=Dorothy Donegan - Live at the Widder Bar
DYEAR=1990
DGENRE=Jazz
TTITLE0=Lover
TTITLE1=Tea For Two - Honeysuckle Rose
TTITLE2=Autumn in New York - I can't get started - On Green Dolphin St.
TTITLE3=Makin'Whoope-Warwaw Concerto-Darn that Dream-All Blue
TTITLE4=Take The A Train
TTITLE5=Prelude to a Kiss-Mood Indigo-Perdido-Take the A Train
TTITLE6=Like Someone In Love-Here's That Rainey Day-....
EXTD=YEAR: 1990
EXTT0=
EXTT1=
EXTT2=
EXTT3=
EXTT4=
EXTT5=
EXTT6=
PLAYORDER=
